<?xml version="1.0" encoding="UTF-8"?>
<!DOCTYPE svg PUBLIC "-//W3C//DTD SVG 1.1//EN" 
"http://www.w3.org/Graphics/SVG/1.1/DTD/svg11.dtd">
<svg xmlns="http://www.w3.org/2000/svg" version="1.1" 
xmlns:xlink="http://www.w3.org/1999/xlink"
width="30px" height="30px" viewBox="0 0 70 70"> 
<defs>
<clipPath id="round-corners">
    <rect x="0" y="0" width="70" height="70" rx="5"/>
</clipPath>
</defs>
<g clip-path="url(#round-corners)">
<rect fill="#E04E3D" x="0" y="0" width="20" height="70"/>
<rect fill="#F4AF11" x="5" y="10" width="5" height="25"/>
<!--  -->
<rect fill="#F4AF11" x="15" y="0" width="20" height="70"/>
<rect fill="#000000" x="19" y="20" width="3" height="30"/>
<!--  -->
<rect fill="#29AAA5" x="25" y="0" width="20" height="70"/>
<rect fill="#000000" x="25" y="60" width="20" height="5"/>
<!--  -->
<rect fill="#4F447F" x="35" y="0" width="20" height="70"/>
<rect fill="#FFFFFF" x="40" y="15" width="2" height="50"/>
<rect fill="#FFFFFF" x="35" y="5" width="20" height="3"/>
<!--  -->
<rect fill="#2E7384" x="46" y="0" width="20" height="70"/>
<rect fill="#000000" x="48" y="50" width="3" height="15"/>
<rect fill="#000000" x="48" y="5" width="3" height="15"/>
<!--  -->
<rect fill="#27A4A7" x="53" y="0" width="20" height="70"/>
<rect fill="#000000" x="55" y="30" width="3" height="35"/>
<!--  -->
<rect fill="#A03F70" x="60" y="0" width="20" height="70"/>
<rect fill="#FFFFFF" x="64" y="10" width="3" height="50"/>
<!--  -->
<path fill="#ffffff" d="M 7 40 C 4 37 6 35 9 35 C 9 32 13 30 15 30 C 15 21 38 14 42 29 C 51 25 53 31 55 34 C 59 33 64 36 64 40 Z"/>
<path opacity=".5" d="M 7 40 C 9 41 11 43 11 41 C 13 44 20 46 20 42 C 38 50 45 46 45 42 C 49 45 55 47 56 41 C 59 42 65 42 64 40 Z"/>
</g>
</svg>